<svg id="503c5dab-af83-49c2-a5c0-c73e3929e5bd" data-name="Layer 8" xmlns="http://www.w3.org/2000/svg" width="22.67" height="32" viewBox="0 0 22.67 32"><title>css3</title><g id="6d695490-14a7-4f05-a065-a36876788184" data-name="g3013"><polygon id="835069b7-ec61-4d49-b687-976bbc0da8a7" data-name="polygon2989" points="11.32 32 2.06 29.43 0 6.29 22.67 6.29 20.61 29.43 11.32 32" fill="#264de4"/><polygon id="13704086-fa62-41da-84d6-0b2ec213d8c9" data-name="polygon2991" points="18.84 27.95 20.6 8.18 11.34 8.18 11.34 30.03 18.84 27.95" fill="#2965f1"/><polygon id="0f1dcf29-b8db-48d7-a9db-6ee61fa5649e" data-name="polygon2993" points="4.73 16.76 4.98 19.6 11.34 19.6 11.34 16.76 4.73 16.76" fill="#ebebeb"/><polygon id="e1df0496-9bb9-4093-8910-f87a70d882de" data-name="polygon2995" points="4.22 11.02 4.48 13.86 11.34 13.86 11.34 11.02 11.33 11.02 4.22 11.02" fill="#ebebeb"/><polygon id="7e107e36-a5f4-4e8c-ac81-1d1ddb6a95b9" data-name="polygon2997" points="11.34 24.14 11.32 24.14 8.16 23.28 7.96 21.02 6.42 21.02 5.11 21.02 5.51 25.48 11.32 27.09 11.34 27.09 11.34 24.14" fill="#ebebeb"/><path id="cb4f4ffc-47e7-46c4-b4e6-9ed6b45d4068" data-name="path2999" d="M10,.18h3.44V1.62h-2V3.06h2V4.5H10Z" transform="translate(-4.66 -0.18)"/><path id="3478f39a-6d09-459e-a0bf-fc2a1b44a678" data-name="path3001" d="M14.12.18h3.44V1.43h-2v.25h2V4.56H14.12V3.25h2V3h-2Z" transform="translate(-4.66 -0.18)"/><path id="607ff591-3cbc-461d-a6d5-7a1154060b0d" data-name="path3003" d="M18.25.18h3.44V1.43h-2v.25h2V4.56H18.25V3.25h2V3h-2Z" transform="translate(-4.66 -0.18)"/><polygon id="3ede73ae-4f7c-441a-8cbc-7c454ff5609c" data-name="polygon3005" points="17.92 16.76 18.43 11.02 11.33 11.02 11.33 13.86 15.32 13.86 15.07 16.76 11.33 16.76 11.33 19.6 14.82 19.6 14.49 23.28 11.33 24.14 11.33 27.09 17.14 25.48 17.19 25 17.85 17.53 17.92 16.76" fill="#fff"/></g></svg>