<svg id="0661933d-fd50-4147-ade5-55b696cacd60" data-name="Layer 11" xmlns="http://www.w3.org/2000/svg" width="32" height="32" viewBox="0 0 32 32"><title>git</title><path d="M32.34,14.57l-14-14a2.06,2.06,0,0,0-2.91,0l-2.9,2.9,3.68,3.68a2.45,2.45,0,0,1,3.1,3.12l3.55,3.55a2.45,2.45,0,1,1-1.47,1.38L18.1,11.93v8.71a2.45,2.45,0,1,1-2-.07V11.77a2.45,2.45,0,0,1-1.33-3.22L11.13,4.93,1.55,14.51a2.06,2.06,0,0,0,0,2.92l14,14a2.06,2.06,0,0,0,2.91,0L32.34,17.49A2.06,2.06,0,0,0,32.34,14.57Z" transform="translate(-0.94)" fill="#f42534"/></svg>