<svg id="639bf5bf-361c-4f01-b413-33b5876da8f6" data-name="Layer 7" xmlns="http://www.w3.org/2000/svg" width="22.67" height="32" viewBox="0 0 22.67 32"><title>html5</title><g id="84367d30-517a-4484-b32a-ceda30e15d6d" data-name="g3054"><polygon id="1d20b919-2b4a-4c7d-b8c1-bc3339b4c0d3" data-name="polygon3028" points="22.67 6.29 20.61 29.43 11.32 32 2.06 29.43 0 6.29 22.67 6.29" fill="#e44d26"/><polygon id="15f7541a-d107-439f-ad28-69ab1dcf9060" data-name="polygon3030" points="11.34 30.03 18.84 27.95 20.6 8.18 11.34 8.18 11.34 30.03" fill="#f16529"/><polygon id="f231cb70-48f9-410f-a154-90b73cf1bf25" data-name="polygon3032" points="7.32 13.86 11.34 13.86 11.34 11.02 11.33 11.02 4.22 11.02 4.29 11.78 4.98 19.6 11.34 19.6 11.34 16.76 7.58 16.76 7.32 13.86" fill="#ebebeb"/><polygon id="7050bc79-5731-422e-aafe-f277bdf92e1b" data-name="polygon3034" points="7.96 21.02 6.42 21.02 5.11 21.02 5.51 25.48 11.32 27.09 11.34 27.09 11.34 24.14 11.32 24.14 8.16 23.28 7.96 21.02" fill="#ebebeb"/><path id="5859209d-0dc5-476a-9f19-34e27ecbb2ff" data-name="path3036" d="M7.24.16H8.69V1.58H10V.16h1.44V4.47H10V3H8.69V4.47H7.24V.16Z" transform="translate(-5.13 -0.16)"/><path id="2d63d421-7e29-4481-b288-3ddb4fbe3727" data-name="path3038" d="M13.34,1.59H12.07V.16h4V1.59H14.79V4.47H13.34V1.59Z" transform="translate(-5.13 -0.16)"/><path id="db586b59-8b32-4c7e-ba0c-32010d292f30" data-name="path3040" d="M16.69.16h1.5l.93,1.52L20,.16h1.5V4.47H20.11V2.33l-1,1.53h0l-1-1.53V4.47H16.69V.16Z" transform="translate(-5.13 -0.16)"/><path id="3a33be12-f67a-4e7b-ba23-6c32911a8f12" data-name="path3042" d="M22.26.16h1.44V3h2V4.47H22.26Z" transform="translate(-5.13 -0.16)"/><polygon id="bc78e4bf-8619-4632-ace9-118d94195e02" data-name="polygon3044" points="11.33 19.6 14.82 19.6 14.49 23.28 11.33 24.14 11.33 27.09 17.14 25.48 17.19 25 17.85 17.53 17.92 16.76 17.16 16.76 11.33 16.76 11.33 19.6" fill="#fff"/><polygon id="0f7a4903-d982-4b67-84db-5f4b4f4dac39" data-name="polygon3046" points="11.33 13.85 11.33 13.86 18.17 13.86 18.17 13.86 18.18 13.86 18.24 13.22 18.37 11.78 18.43 11.02 11.33 11.02 11.33 12.78 11.33 13.85" fill="#fff"/></g></svg>