<svg id="155cb2e8-b76e-4ee1-806c-dfead5bb99d4" data-name="Layer 4" xmlns="http://www.w3.org/2000/svg" xmlns:xlink="http://www.w3.org/1999/xlink" width="32.82" height="32" viewBox="0 0 32.82 32"><defs><radialGradient id="832468c9-d6e0-410d-9ca3-0c3af86ca2f0" cx="-1001.54" cy="-1056.78" r="0.04" gradientTransform="translate(546526.95 558315.79) scale(545.67 528.31)" gradientUnits="userSpaceOnUse"><stop offset="0" stop-color="#423325" stop-opacity="0.98"/><stop offset="1" stop-color="#1c0a00"/></radialGradient></defs><title>illustrator</title><path d="M.66,1.92H30.74V31.18H.66Z" transform="translate(0.71 -0.55)" fill="url(#832468c9-d6e0-410d-9ca3-0c3af86ca2f0)"/><path d="M.66,1.92H30.74V31.18H.66ZM-.71,32.55H32.11V.55H-.71ZM20.79,12c0-.11,0-.16.16-.16H23.1c.11,0,.16,0,.16.16V22.75c0,.11,0,.16-.16.16H21c-.14,0-.18-.07-.18-.18V12Zm-.15-3.11a1.39,1.39,0,1,1,2.79,0A1.3,1.3,0,0,1,22,10.24,1.28,1.28,0,0,1,20.64,8.85Zm-6.15,7.6c-.38-1.52-1.29-4.82-1.63-6.43h0c-.29,1.6-1,4.3-1.58,6.43Zm-3.8,2.21-1.08,4.1c0,.11-.07.14-.2.14h-2c-.14,0-.16,0-.14-.2L11.14,9.11A4.48,4.48,0,0,0,11.28,8c0-.1,0-.14.11-.14h2.87c.1,0,.14,0,.16.14l4.35,14.75c0,.11,0,.18-.11.18H16.4c-.11,0-.18,0-.2-.12l-1.12-4.11H10.69Z" transform="translate(0.71 -0.55)" fill="#ff7f18"/></svg>