<svg id="34901bab-a8b5-4a99-a5bd-f8ff5fc5496e" data-name="Layer 3" xmlns="http://www.w3.org/2000/svg" xmlns:xlink="http://www.w3.org/1999/xlink" width="32.82" height="32" viewBox="0 0 32.82 32"><defs><radialGradient id="2177559c-a23f-47d3-af62-819597dd733c" cx="-1001.54" cy="-1056.78" r="0.04" gradientTransform="translate(546526.95 558315.79) scale(545.67 528.31)" gradientUnits="userSpaceOnUse"><stop offset="0" stop-color="#34364e" stop-opacity="0.98"/><stop offset="1" stop-color="#0c0824"/></radialGradient></defs><title>photoshop</title><path d="M1.34,1.34H31.43V30.61H1.34Z" transform="translate(0.03 0.02)" fill="url(#2177559c-a23f-47d3-af62-819597dd733c)"/><path d="M1.34,1.34H31.43V30.61H1.34ZM0,32H32.79V0H0ZM22.1,13.11c-1.08,0-1.45.55-1.45,1s.24.84,1.7,1.58c2.14,1,2.81,2,2.81,3.5,0,2.19-1.67,3.37-3.93,3.37a5.93,5.93,0,0,1-2.8-.59c-.1,0-.11-.11-.11-.22v-2c0-.14.07-.18.16-.11a5.1,5.1,0,0,0,2.75.81c1.08,0,1.53-.45,1.53-1.07s-.32-.93-1.7-1.64c-1.94-.93-2.75-1.87-2.75-3.45,0-1.76,1.38-3.23,3.77-3.23a6.29,6.29,0,0,1,2.45.38.3.3,0,0,1,.14.28v1.87c0,.11-.07.18-.2.14a4.65,4.65,0,0,0-2.38-.61ZM10.34,14.73c.32,0,.56,0,1.1,0,1.6,0,3.1-.56,3.1-2.74,0-1.74-1.08-2.61-2.9-2.61-.55,0-1.07,0-1.32,0v5.28ZM7.9,7.47c0-.1.19-.16.3-.16.87,0,2.18-.07,3.52-.07C15.52,7.24,17,9.32,17,12c0,3.47-2.52,5-5.61,5-.52,0-.7,0-1.07,0v5.25c0,.11,0,.16-.16.16H8.07c-.11,0-.16,0-.16-.16V7.47Z" transform="translate(0.03 0.02)" fill="#31c5f0"/></svg>