<svg id="737a33f5-79e6-46da-b3e7-635a1d84be35" data-name="Layer 10" xmlns="http://www.w3.org/2000/svg" width="32.01" height="32" viewBox="0 0 32.01 32"><title>postcss</title><path d="M7,13.37s.12.05,0,.12a1.68,1.68,0,0,0-.16.23c0,.08-.08.1-.14,0q.13-.21.26-.39ZM28.69,24.71s0,.05,0,.09,0-.06,0-.09Zm0,.1h0ZM26.48,29,24.6,18.59l-.15-.05a.71.71,0,0,1,0,.11l.1,0a0,0,0,0,1,0,0L26.48,29ZM24.54,16.25a.3.3,0,0,0,0,.1.28.28,0,0,1,0-.1Zm0,.22h0s0,0,0,0Zm0,.09v-.08l-.11,0c.05,0,.11,0,.11.05Z" transform="translate(-1)" fill="#dd3735"/><path d="M32.95,13.92c0-.42,0-.84-.08-1.27-.08-.57-.15-1.16-.28-1.72a9.74,9.74,0,0,0-.42-1.35A16.24,16.24,0,0,0,31.5,8,23.86,23.86,0,0,0,30,5.77c-.34-.48-.77-.87-1.09-1.35a3.32,3.32,0,0,0-.72-.74c-.43-.35-.89-.66-1.34-1S26.17,2.25,25.8,2s-.6-.29-.91-.43a4.62,4.62,0,0,0-1.07-.43l-.28-.09c-.25-.09-.49-.18-.74-.26S22.06.58,21.67.48A10.42,10.42,0,0,0,20.52.26C20.08.2,19.64.17,19.21.13c-.28,0-.56-.06-.83-.08s-.83,0-1.24,0a5.92,5.92,0,0,0-.63,0,9.22,9.22,0,0,0-.94.09c-.3,0-.6.09-.9.13L13.6.33c-.34,0-.68.11-1,.16l-.36.09a6.84,6.84,0,0,0-.79.16c-.46.14-.93.3-1.38.48a12.72,12.72,0,0,0-1.23.57c-.41.23-.8.5-1.19.76s-.74.51-1.09.79a13,13,0,0,0-1,.88c-.17.17-.31.38-.48.57s-.54.62-.8.94-.41.55-.62.83a13.79,13.79,0,0,0-1,1.56c-.12.22-.23.43-.34.65s-.34.64-.49,1a4.11,4.11,0,0,0-.26.73c-.15.53-.3,1.07-.44,1.6A6,6,0,0,0,1,13.53a10.26,10.26,0,0,0,.08,1.29c0,.11-.05.24.08.32,0,.12,0,.18.05.21s0,.2,0,.3,0,.06.05.1a.38.38,0,0,0,0,.11,2.38,2.38,0,0,1,.05.3c0,.08.06.16.09.24a.13.13,0,0,1,0,.11c-.06.08-.05.14,0,.18a.41.41,0,0,1,0,.27c0,.1,0,.13,0,.15a1.42,1.42,0,0,1,.13.56.41.41,0,0,0,0,.14,1.32,1.32,0,0,1,0,.21L1.76,18a3.5,3.5,0,0,0,.11.39c.05.09.05.13,0,.14A3.33,3.33,0,0,0,2,19,3.67,3.67,0,0,0,2,18.44a1.42,1.42,0,0,0,.37.11,1,1,0,0,1,0-.1c-.06-.06-.12-.16-.18-.23a.33.33,0,0,1,0,.15l-.15-.07.15-.17C2.2,18,2.15,18,2,18l.21-.08c.12-.06,0-.18,0-.34A2.82,2.82,0,0,0,2.06,17c-.05-.3,0-.76-.08-1.06-.06-.05-.12.09-.13.1,0,.26.06.52.09.78-.06-.22-.11-.45-.16-.71a1.2,1.2,0,0,0,0,.15c-.05.05,0,.12,0,.19a.35.35,0,0,0-.16,0v.3a1.5,1.5,0,0,1-.19-.27c0-.09,0-.17-.05-.26a.23.23,0,0,0,0-.12c0-.08,0-.16,0-.26a.88.88,0,0,0,0-.17l.19,0c-.11-.14,0-.23,0-.31s.1-.05.12-.1.23-.29.23-.5,0-.21,0-.3,0-.37.05-.55A5,5,0,0,1,2,13.2c.09-.38.2-.76.31-1.14s.18-.53.29-.8A12.55,12.55,0,0,1,3.15,10c.29-.58.63-1.15,1-1.72.21-.36.42-.69.65-1s.43-.68.68-1A8.81,8.81,0,0,1,6.58,5c.43-.39.84-.79,1.31-1.15A13.13,13.13,0,0,1,9.81,2.66a14.74,14.74,0,0,1,1.7-.74c.37-.14.77-.21,1.15-.32A4.55,4.55,0,0,1,14,1.38c.29,0,.57,0,.86-.08l.8-.08-.05.09-.37.52-.3.43c-.17.23-.36.46-.52.69s-.48.73-.74,1.08-.54.67-.81,1-.69.94-1,1.41-.67.87-1,1.31-.53.8-.8,1.2l-1.2,1.77-1,1.35s-.05,0-.09.06a1.51,1.51,0,0,0-.12.28c-.09.16-.17.32-.27.48s-.13.16-.19.25c0-.13.17-.19.09-.36l-.16.25L7,13.31s.12.05,0,.12l-.1.17a.39.39,0,0,0,.12-.11.65.65,0,0,1-.12.31.87.87,0,0,1-.23.22l.1.05c.1,0,.13-.09.14-.05A.48.48,0,0,0,7,13.92a.39.39,0,0,1,.22-.24.43.43,0,0,0,.11-.09c.32-.34.66-.66,1-1,.45-.55.86-1.13,1.3-1.69.18-.24.4-.48.59-.7a4,4,0,0,1,0,.71c0,.4-.05.8-.09,1.21,0,.16,0,.32,0,.49s0,.08,0,.12,0,.23,0,.34c0,.4-.08.79-.11,1.19a.65.65,0,0,0,.05.25c-.05.58.07,1.2,0,1.82a.48.48,0,0,0,.1-.27,1.37,1.37,0,0,0,0-.21v-.11a3.76,3.76,0,0,0,0-.6,2,2,0,0,1,0-.63c0-.09,0-.19,0-.3v.16a15.16,15.16,0,0,1-.08,1.85c0,.05,0,.15-.09.14-.1.19,0,.34-.09.44s0,.12,0,.18,0,.13,0,.14c0,.24,0,.45,0,.68a5.54,5.54,0,0,0,.16-1.26,4.27,4.27,0,0,1,0,.53c0,.28,0,.55,0,.83a.85.85,0,0,1,0,.16,3,3,0,0,1-.1.44,1.22,1.22,0,0,0,0,.4v.41c0,.18,0,.28,0,.39s0,.14,0,.17l0,.16c.22,0,.12.14.21.23a.18.18,0,0,0,0,.16,2.4,2.4,0,0,1,0,.28c0,.25,0,.5,0,.74,0,0,0,.06,0,.1s0,.3,0,.3,0,.06,0,.1,0-1.37,0-1.37H10a11.37,11.37,0,0,1-.09,1.84,2.91,2.91,0,0,1-.31,0H7.38l-.59,0c-.26,0-.53,0-.79,0s-.79,0-1.19,0l-.87,0-.58,0a1.73,1.73,0,0,0-.27.08.91.91,0,0,0-.17,0c-.11,0-.21.09-.31.11s-.21.08-.18.24v.11s.24,0,.24,0,0,.06-.07.12l.2-.08a1.69,1.69,0,0,0,.43.07,8.53,8.53,0,0,0,1.29.19l.83,0c.4,0,.8,0,1.2,0s.66,0,1,0,.93,0,1.39,0H10l2.11-.05,1.21,0,1.23,0,1.42,0,1.06,0c.4,0,.81,0,1.21-.06l.65-.05c.26,0,.53-.05.79-.06L20.87,23c.49,0,1-.08,1.47-.09s.92,0,1.37,0l1.21,0,.68,0s.45,0,.68,0c.39,0,.78-.06,1.17-.08h.75c.4,0,.81,0,1.21,0l.51,0-.21.17.13.05a.29.29,0,0,1-.17.05.67.67,0,0,0-.07.18h.19c-.08,0-.14.1-.22.16a.16.16,0,0,0-.21.12c.08,0,.06.08.05.12s-.23.09-.17.23l-.15.08c-.05.09-.15.11-.13.23l.12,0-.16.08c-.19.12-.11.17-.06.23l-.1.05c0,.1.05.12.06.12l-.16.13a.75.75,0,0,1-.12.21,2.05,2.05,0,0,1-.12.22,4,4,0,0,1-.68.74,2.33,2.33,0,0,0-.3.27c-.19.18-.37.39-.57.56s-.55.43-.84.64L25,28.15c-.19.13-.41.23-.62.35l-.61.35a3.27,3.27,0,0,1-.39.27c-.36.15-.74.28-1.1.42s-.62.28-.89.38a6.1,6.1,0,0,1-.77.21,2.29,2.29,0,0,1-.28,0c-.18,0-.37.08-.55.1l-1.43.17-.83.12c-.19,0-.4,0-.59,0a2.87,2.87,0,0,1-.43,0c-.23,0-.45-.09-.68-.13a.31.31,0,0,0-.17,0c-.09,0-.16,0-.25,0s-.11,0-.16,0-.1,0-.15,0a1,1,0,0,0-.36-.06,1.41,1.41,0,0,1-.4-.09l-.57-.13a1,1,0,0,1-.22-.1,1.76,1.76,0,0,1-.64-.08,1,1,0,0,0-.45-.11s-.08,0-.12,0-.06-.13-.1-.13c-.22,0-.35-.17-.53-.23s-.17-.14-.27-.17-.43-.3-.7-.34a1.63,1.63,0,0,1-.27-.09l.09.11c-.31-.15-.6-.32-.9-.49,0,0-.08-.05-.11-.08l-.29-.19A.32.32,0,0,1,9,28.12c-.29-.21-.63-.34-.91-.56a1.78,1.78,0,0,1-.34-.28,1.71,1.71,0,0,0-.54-.42c-.16-.09-.31-.18-.46-.28a.29.29,0,0,1-.15-.24c0-.08,0-.15-.13-.11s-.09-.14-.14-.16A1.14,1.14,0,0,1,6,25.82c-.1-.09-.17-.21-.29-.25a1.28,1.28,0,0,1-.48-.42c-.3-.36-.57-.75-.85-1.13a.77.77,0,0,0-.1-.09,3,3,0,0,0,.15.32.65.65,0,0,1-.25-.19s.75,1.26.75,1.26l.18.29a.33.33,0,0,1-.32-.17.4.4,0,0,0-.42-.26,1.88,1.88,0,0,1-.05-.24H4.13c.15.24.28.44.42.68l-.11-.06c.19.21.33.47.58.6.05.25.34.37.4.61l-.15,0L5,26.39a.54.54,0,0,0,.1.19,4.17,4.17,0,0,0,.4.47c.05.06.13.08.13.17a.35.35,0,0,0,.15.05c0,.07,0,.16.12.14.09.16.17.16.29.11.14.14.22.15.31.07s0,.11,0,.15,0-.05,0-.11l.11.09a1.84,1.84,0,0,0,.36.41c.21.17.39.36.58.52a8.26,8.26,0,0,0,1.22.81c.52.29,1,.61,1.55.89a8.32,8.32,0,0,0,2,.73l.77.17c.23.07.45.16.68.22l1,.21.24,0c.1,0,.22,0,.24,0s.1,0,.16,0a.92.92,0,0,1,.25,0,8.42,8.42,0,0,0,.9.05c.07,0,.16-.05.22.05a.74.74,0,0,1,.19-.05c0,.1,0,.1,0,.11l-.1.05a2.43,2.43,0,0,0,1.08,0,3.63,3.63,0,0,0,1.51-.18c0,.05.08.13.14,0s.08,0,.12-.05a.6.6,0,0,1,.3,0c.1,0,.13-.05.21-.05a2,2,0,0,0,.37,0l.21-.06a.52.52,0,0,0-.24-.05l.37-.17s0,.08-.09.08h.15s-.08.1-.13.16L22,31.28c-.12-.23.13-.15.22-.28l-.32.09c.37-.18.75-.35,1.11-.51a.7.7,0,0,1-.22.15l.14,0c.17.05.13-.11.18-.21a1,1,0,0,0,.39-.06l.32-.11c.17-.08.33-.17.51-.26a.49.49,0,0,1,.13,0c.12-.08.16-.14.19-.13a.24.24,0,0,0,.3-.17l.18-.13.7-.39H26c.14-.07.27-.14.4-.22L26.32,29l.21-.05a7.81,7.81,0,0,1,.89-.75c.12,0,.12,0,.12-.06a1,1,0,0,1,.14-.16c.24-.22.5-.4.71-.63s.62-.64.9-1a8.88,8.88,0,0,0,.74-.94c.3-.47.56-.94.83-1.43s.37-.69.56-1c0,0,.06-.08.1-.08l.86-.09a.81.81,0,0,0,.21-.09c0-.05-.05-.12-.09-.17s-.11-.12-.15-.18a1,1,0,0,1-.11-.18l-.1-.15a3.93,3.93,0,0,1-.18-.37.23.23,0,0,1,0-.12c.19-.42.27-.88.45-1.3a6.62,6.62,0,0,0,.32-1.39c.08-.44.12-.89.17-1.33s.08-.62.09-.93a9,9,0,0,0,0-1.43c0-.41,0-.83-.05-1.24ZM5.83,27.24,5.61,27l0,0,.36.4C5.94,27.3,5.86,27.28,5.83,27.24Zm.17.1.1,0c0,.05.05.12.09.18-.15,0-.23-.08-.18-.16Zm11.24,4.47v0l.6-.06v0a5.81,5.81,0,0,1-.6.06ZM20,31.53l-.46.08c-.05,0-.12.06-.14,0l-.06,0c.05.16.18,0,.29.1l-.69.09v0l.21,0v0l-.32,0s-.08,0-.11.05l-.14,0-.54,0h0v0l2.16-.29s0,0,0,.06a.75.75,0,0,0-.16,0Zm.16-.11.71-.09c-.5.14-.66.16-.71.09ZM10.72,9.57c.34-.48.7-1,1-1.44.11-.14.19-.29.3-.43a.71.71,0,0,1,.13-.11v0a1.08,1.08,0,0,0,.11-.14,2.08,2.08,0,0,0,.13-.28.16.16,0,0,1,0,0c.15.08.15-.09.21-.14L13,6.63a2.23,2.23,0,0,0,.18-.26s0-.09,0-.13h0l.1-.08h0l.19-.28a4.65,4.65,0,0,1,.42-.5l-.06.15h0l.4-.51,0,0L14,5.16l0,0c.11-.14.22-.28.32-.44l.09.16c0-.11.09-.18.12-.26l-.11.1,0,0,.19-.29.62-.89c.08-.11.17-.19.24-.3a11.55,11.55,0,0,1,.78-1.11,1.77,1.77,0,0,1,.19-.21c.05-.07.1,0,.14,0L17.37,3c.22.27.43.53.64.81l.74,1c.28.4.56.8.83,1.21.41.61.8,1.21,1.21,1.82.3.44.61.88.9,1.32h-.55c-.51,0-1-.05-1.53,0-.69,0-1.39.11-2.09.16-.88.08-1.76.09-2.64.09-.31,0-.63,0-.94.07l-1.12.05-1.32,0c-.25,0-.51,0-.78,0Zm12.4,5v.1h0c0-.15-.09-.31-.14-.47a3.63,3.63,0,0,0-.42-.91c-.22-.3-.41-.62-.63-.93a1.64,1.64,0,0,0-.19-.21,3.77,3.77,0,0,0-.75-.69,8.82,8.82,0,0,0-1.35-.69,3,3,0,0,1-.38-.19h.26l1.85,0c.4,0,.79,0,1.19,0a.21.21,0,0,1,.21.12c.1.16.19.32.3.49a.2.2,0,0,1,0,.09c0,.24,0,.49,0,.73s0,.49,0,.74,0,.51,0,.77,0,.75,0,1.13ZM11.48,10.92,13,10.85l1.18-.05a2.45,2.45,0,0,1,.48,0,3.79,3.79,0,0,0-.5.28c-.19.13-.38.3-.57.44A3.24,3.24,0,0,0,13,12c-.21.25-.43.46-.65.7a6.6,6.6,0,0,0-.45.52c-.18.24-.35.5-.52.77.05-1,.12-2,.08-3.08Zm7.06,10.41a8.81,8.81,0,0,1-1.06.23,6.57,6.57,0,0,1-.93,0c-.28,0-.55,0-.83,0a2.8,2.8,0,0,1-.93-.21c-.26-.12-.53-.23-.79-.36a2.09,2.09,0,0,1-.71-.52,4.08,4.08,0,0,0-.51-.47.51.51,0,0,0,.23.31c-.05.06-.13,0-.24-.14l-.09,0,.1-.22-.14-.27-.25-.43s0-.06,0-.1l-.15-.2a4.41,4.41,0,0,0-.27-.4s0,.06,0,.11h0l-.23-.55h0l.19.71h0a.66.66,0,0,1-.09-.14c0-.09-.09-.09-.14-.05a.15.15,0,0,0,0,.13c.08.18.16.37.25.55a1.29,1.29,0,0,0,.08.18s0,0,0,.08a1.92,1.92,0,0,0,.13.25l.3.39c.1.13.18.27.27.4s0,0,.05,0c.05.16.24.28.37.22,0,.25.3.34.41.57l-.31-.14s0,0,0,0a4.15,4.15,0,0,1,.38.21,3.31,3.31,0,0,1,.31.21,1,1,0,0,0,.46.23.12.12,0,0,0,0,0l.85.41-3.57.07c0-.21,0-.4,0-.61a1.87,1.87,0,0,0,0-.25c0-.5,0-1-.1-1.48a10.6,10.6,0,0,1-.05-1.55c0-.28,0-.57,0-.85s0-.75,0-1.13a.4.4,0,0,1,0-.15h0s0,.05,0,.07.09.09.11.08.16-.09.18-.15a1.06,1.06,0,0,0,.08-.4.39.39,0,0,1,.09-.23,1,1,0,0,0,.05-.11l-.14-.1c0-.12,0-.26.2-.32s0-.07,0-.1,0-.18,0-.27l.05.06,0,0s0-.13,0-.13.08-.16.14-.23,0,0,0-.07,0-.05,0-.05.13-.2.23-.27,0-.05.09-.11c.09.15-.06.23-.08.34.18-.11.24-.37.13-.44a.64.64,0,0,0,.12-.12c.12-.13.25-.25.36-.38s.12-.22.19-.31a.62.62,0,0,1,.19-.13,1.31,1.31,0,0,0,.5-.41l.09-.06s.1,0,.11-.05,0-.08,0-.11.09-.06.17-.11,0,.11-.06.15l.05.05c.1-.08.25-.16.35-.23s-.05-.05-.05-.05l-.26.13s0-.05,0-.06A4,4,0,0,1,14.9,12L16,11.54a.52.52,0,0,1,.23,0h.09l.52-.15a.9.9,0,0,1,.24,0c.32,0,.65,0,1,0a1.65,1.65,0,0,1,.4.09,4.06,4.06,0,0,1,.49.21,5.64,5.64,0,0,1,.53.33c.31.21.6.43.92.62a2.44,2.44,0,0,1,.74.71,3.3,3.3,0,0,1,.62,1l.16.71a.87.87,0,0,1,.08.41c-.05.27-.1.55-.14.82a1.11,1.11,0,0,0,0,.32,2,2,0,0,1-.24.93c0,.1-.11.2-.16.3l.09,0,.1-.19h0c-.05.15-.1.31-.15.47-.13.34-.26.68-.42,1a5.39,5.39,0,0,1-.35.51c-.11.15-.19.31-.3.45a1.52,1.52,0,0,1-.32.32,8.29,8.29,0,0,1-.91.61,2.27,2.27,0,0,1-.64.24Zm-5.76-.57h0l-.08,0-.26-.39a.12.12,0,0,1,0-.11c.12.18.24.36.37.53Zm6.72,1.48a4.35,4.35,0,0,0,1.25-.83,1.22,1.22,0,0,1,.17-.15A3.79,3.79,0,0,0,22,20.15a15.07,15.07,0,0,0,.85-1.59l.06-.12a24.58,24.58,0,0,0,.28,3.67l-3.72.13Zm11-.32,0,.07a.65.65,0,0,1,0-.1c-.06.17-.21.09-.3.09H26.63c-.18,0-.38,0-.56.05l-1.33,0s-.06-.05-.12-.1l-.06.1L24.5,22l0,.09h0a3.1,3.1,0,0,1-.06-.44c0-.32,0-.65,0-1,0-.15,0-.29,0-.43l.12.09.06-.11,0,0s0,0,0,0a.48.48,0,0,0,0-.09,1.17,1.17,0,0,0,0-.21h0l.06.32h0c0-.08.1-.14,0-.23s0-.08,0-.11a2.18,2.18,0,0,1-.09-.22l.08,0-.11-.05c.11-.1.11-.15,0-.26s0,0,0,0a1.34,1.34,0,0,0,0-.29c0-.11,0-.24-.13-.3a.31.31,0,0,0,0,.09l-.06,0c-.14-.13-.05-.3-.09-.5l.18.07c0-.08-.08-.16-.11-.26h0v-.71s.08,0,.12,0,0,0,0,0l-.12-.14,0,0a.39.39,0,0,1,0-.29v-.76c.11.11-.05.25.11.31v-.11h0c0-.16,0-.32,0-.49h0l0,.05h0l.06-2.59a3.38,3.38,0,0,1,.3.41A11.29,11.29,0,0,0,25.67,15c.26.36.5.75.74,1.11l.86,1.33c.22.34.44.67.67,1s.42.57.64.86l.56.75.65.9.34.45a1.31,1.31,0,0,0,.23.21h0l.08.1c.12.06.13.13.06.23Zm.55-2.7v-.08s0,.05,0,.08Zm.37-4.77-.09-.08s0,.06,0,.11-.09,0-.09-.05c0,.15.06.3.05.45,0,0,.16,0,.19-.06l0,0c-.22.16-.16.32-.06.51s.09.13,0,.22,0,.09,0,.14h0v0l-.1,0s-.15-.1-.15-.15v.55c.11,0,.11.18.15.26a.32.32,0,0,0,0-.09h0a1.29,1.29,0,0,1,0,.2,2.49,2.49,0,0,0-.05.28s0,0,0,0a3.26,3.26,0,0,0-.1.85c0,.21,0,.42,0,.64a5.43,5.43,0,0,1-.11.56s0,0-.09.06a.87.87,0,0,0,0-.34l-.16-.08a3.57,3.57,0,0,0,.12.53L30.83,19c0,.13,0,.3,0,.44s-.11.21-.12.32.08.11.06.22h.09c0-.22.1-.41.1-.64h0s0,0,0,.05a1.41,1.41,0,0,0-.05.37c0,.06.05.13,0,.21a1.05,1.05,0,0,0,0,.23.6.6,0,0,1,0-.11h-.12c0,.06.08.13.06.18l0,0-.36-.52-.84-1.24a2.59,2.59,0,0,1-.2-.32,15.17,15.17,0,0,0-1.11-1.66c-.31-.4-.56-.83-.85-1.25l-.81-1.19c-.1-.13-.22-.25-.3-.39-.28-.44-.53-.9-.81-1.34s-.5-.73-.75-1.08l-.26-.38a.15.15,0,0,1,0-.07c0-.24,0-.48-.05-.7s0-.43,0-.66V9.28c0-.05,0-.1,0-.15l0,0c-.31,0-.64,0-1,0a.53.53,0,0,1-.45-.23A17.88,17.88,0,0,1,22,7.36c-.34-.48-.68-.94-1-1.41l-.84-1.13c-.31-.43-.62-.87-.94-1.3L18,2c-.18-.24-.39-.47-.6-.71l.4.05.52,0c.39,0,.78.05,1.17.11l1,.16a13.88,13.88,0,0,1,2.1.54c.4.13.79.3,1.18.47a24,24,0,0,1,2.53,1.24,2.54,2.54,0,0,1,.6.57c.28.29.56.58.83.89s.6.73.91,1.09l.82,1a3.36,3.36,0,0,1,.23.32c.17.26.37.51.52.79a4.58,4.58,0,0,1,.25.67l.32,1c.08.25.14.51.19.77s0,.36.09.53,0,.48.07.7l0,.08s.08.09,0,.15a.12.12,0,0,0,0,.09l.05-.08s0,0,0,0a.51.51,0,0,0,0,.13.24.24,0,0,0,0,.08l.09-.07a4.29,4.29,0,0,1,.11,1.11,2.53,2.53,0,0,1-.09,1.06c0-.12,0-.23,0-.34Z" transform="translate(-1)" fill="#dd3a0a"/><path d="M24.47,18.65h0s0,0,0,0Zm1.71,10.69a1,1,0,0,1-.39.19l0,0,.37-.23,0,.06ZM5.92,14.68l.37-.45.11,0-.4.52s-.05-.1-.08-.11ZM2.85,20l-.26-.56.1,0a3.74,3.74,0,0,1,.26.56l-.1,0ZM5.6,14.78l-.19.3s-.13,0-.14,0,.23-.27.29-.37l0,0ZM25,29.78h0l.25,0c-.14.1-.23.09-.27,0ZM5.62,15.24a.45.45,0,0,1,.05-.1h.05c0-.08,0-.13.09-.19l0,0-.19.14a.06.06,0,0,1,0,.05c-.09,0-.12,0-.16.15s-.06,0-.12.09,0,.08,0,.13h0l-.05,0L5,15.71a.32.32,0,0,0,0,.1c.08-.08.21-.22.3-.3h0l.12-.19,0,0-.1.27s-.06,0-.06,0l-.12.11L5,15.88l-.34.28-.24.37c.13,0,.16,0,.15.13.15,0,.16-.1.21-.18s0-.07,0-.08l.31-.25a.15.15,0,0,0,0-.1s-.05,0-.09,0,.24-.29.34-.41.11-.08.11-.11.06-.15.15-.19a.12.12,0,0,1-.05-.08Z" transform="translate(-1)" fill="#dd3735"/><path d="M5.84,15.12l-.13.22-.06,0a.64.64,0,0,1-.35.51.18.18,0,0,0,.12,0s.05-.07.08-.1l.29-.42.1-.16,0,0Zm-3.6,4.75h.17s.05,0,.05-.08h0c0,.05,0,.1,0,.15H2.29s-.05-.08,0-.09Zm-.09-.5s-.09-.06-.09-.1,0-.1.05-.15,0,.14.05.22,0,0,0,0Zm.27-.69.13.34-.09,0-.14-.34.1,0ZM26.48,29l.21-.05a2.45,2.45,0,0,0-.24.19l0,0,.07-.12ZM13.2,6.16,13.38,6l0,0-.2.28c0-.08,0-.12,0-.17s0,0,0,0Zm3.17,5.48.31-.14a.84.84,0,0,0,0,.15l-.11,0c-.06,0-.18.1-.24.11s0-.09,0-.1Zm8.11,9.18c0,.11.23.16,0,.27l.1.06a.08.08,0,0,1,0,0s-.06,0-.09,0,0,0,0-.06,0-.19,0-.32Z" transform="translate(-1)" fill="#dd3735"/></svg>