<!-- Generator: Adobe Illustrator 21.0.0, SVG Export Plug-In  -->
<svg version="1.1"
	 xmlns="http://www.w3.org/2000/svg" xmlns:xlink="http://www.w3.org/1999/xlink" xmlns:a="http://ns.adobe.com/AdobeSVGViewerExtensions/3.0/"
	 x="0px" y="0px" width="33.9px" height="32px" viewBox="0 0 33.9 32" style="overflow:scroll;enable-background:new 0 0 33.9 32;"
	 xml:space="preserve">
<style type="text/css">
	.st0{fill:#FFFFFF;}
	.st1{fill:#53C1DE;}
</style>
<defs>
</defs>
<rect class="st0" width="33.9" height="32"/>
<path class="st1" d="M27.9,10.7c-0.3-0.1-0.7-0.2-1.1-0.3c0.1-0.2,0.1-0.5,0.2-0.7c0.8-4,0.3-7.2-1.5-8.2c-1.8-1-4.6,0-7.5,2.6
	c-0.3,0.2-0.6,0.5-0.8,0.8c-0.2-0.2-0.4-0.3-0.6-0.5c-3-2.7-6.1-3.8-7.9-2.8c-1.8,1-2.3,4-1.5,7.8c0.1,0.4,0.2,0.7,0.2,1.1
	c-0.4,0.1-0.8,0.3-1.2,0.4C2.5,12,0.3,14,0.3,16c0,2.1,2.4,4.2,6.1,5.4c0.3,0.1,0.6,0.2,0.9,0.3c-0.1,0.4-0.2,0.8-0.3,1.2
	c-0.7,3.7-0.2,6.6,1.6,7.7c1.8,1,4.8,0,7.8-2.6c0.2-0.2,0.5-0.4,0.7-0.6c0.3,0.3,0.6,0.6,0.9,0.8c2.9,2.5,5.7,3.5,7.4,2.4
	c1.8-1,2.4-4.2,1.6-8c-0.1-0.3-0.1-0.6-0.2-0.9c0.2-0.1,0.4-0.1,0.6-0.2c3.9-1.3,6.4-3.3,6.4-5.5C33.9,13.9,31.5,12,27.9,10.7
	L27.9,10.7L27.9,10.7z"/>
<path class="st0" d="M27.1,20.1c-0.2,0.1-0.4,0.1-0.6,0.2c-0.4-1.3-1-2.8-1.7-4.3c0.7-1.4,1.2-2.9,1.6-4.2c0.3,0.1,0.7,0.2,1,0.3
	c3.1,1.1,5,2.7,5,3.9C32.4,17.3,30.4,19,27.1,20.1L27.1,20.1L27.1,20.1z M25.7,22.8c0.3,1.7,0.4,3.2,0.2,4.4
	c-0.2,1.1-0.6,1.8-1.1,2.1c-1.1,0.6-3.3-0.2-5.8-2.3c-0.3-0.2-0.6-0.5-0.8-0.8c0.9-1,1.9-2.2,2.8-3.6c1.6-0.1,3.2-0.4,4.6-0.7
	C25.6,22.3,25.6,22.5,25.7,22.8L25.7,22.8L25.7,22.8z M11.7,29.2c-1,0.4-1.9,0.4-2.4,0.1c-1.1-0.6-1.5-3-0.9-6.1
	c0.1-0.4,0.2-0.7,0.2-1.1c1.4,0.3,2.9,0.5,4.5,0.7c0.9,1.3,1.9,2.5,2.9,3.6c-0.2,0.2-0.4,0.4-0.6,0.6C14.2,28,12.9,28.8,11.7,29.2
	L11.7,29.2L11.7,29.2z M6.9,20.1c-1.6-0.6-3-1.3-3.9-2.1c-0.8-0.7-1.3-1.4-1.3-2c0-1.2,1.8-2.8,4.9-3.8c0.4-0.1,0.8-0.3,1.2-0.4
	c0.4,1.4,1,2.8,1.6,4.2c-0.7,1.5-1.2,2.9-1.7,4.3C7.4,20.2,7.1,20.1,6.9,20.1L6.9,20.1L6.9,20.1z M8.5,9C7.9,5.8,8.3,3.3,9.3,2.7
	C10.5,2.1,13,3,15.6,5.3c0.2,0.1,0.3,0.3,0.5,0.5c-1,1-1.9,2.2-2.9,3.5c-1.6,0.1-3.1,0.4-4.5,0.7C8.6,9.7,8.6,9.3,8.5,9L8.5,9L8.5,9
	z M23,12.6c-0.3-0.6-0.7-1.1-1-1.7c1.1,0.1,2.1,0.3,3.1,0.5c-0.3,0.9-0.7,1.9-1.1,2.9C23.7,13.7,23.3,13.2,23,12.6L23,12.6L23,12.6z
	 M17.1,6.8c0.7,0.7,1.3,1.5,2,2.4c-0.7,0-1.3,0-2,0c-0.7,0-1.3,0-2,0C15.7,8.3,16.4,7.5,17.1,6.8L17.1,6.8L17.1,6.8z M11.1,12.6
	c-0.3,0.6-0.6,1.2-0.9,1.7c-0.4-1-0.8-2-1.1-2.9c1-0.2,2-0.4,3-0.5C11.8,11.4,11.5,12,11.1,12.6L11.1,12.6L11.1,12.6z M12.2,21.2
	c-1.1-0.1-2.1-0.3-3.1-0.5c0.3-1,0.7-2,1.1-3c0.3,0.6,0.6,1.2,1,1.7h0C11.5,20,11.8,20.6,12.2,21.2L12.2,21.2L12.2,21.2z M17.1,25.2
	c-0.7-0.7-1.4-1.5-2-2.4c0.6,0,1.3,0,2,0c0.7,0,1.4,0,2,0C18.4,23.7,17.8,24.5,17.1,25.2L17.1,25.2L17.1,25.2z M24,17.6
	c0.4,1,0.8,2,1.1,3c-1,0.2-2,0.4-3.1,0.5c0.3-0.6,0.7-1.1,1-1.7C23.4,18.8,23.7,18.2,24,17.6L24,17.6L24,17.6z M21.8,18.7
	c-0.5,0.9-1.1,1.8-1.6,2.6c-1,0.1-2,0.1-3.1,0.1c-1,0-2.1,0-3-0.1c-0.6-0.8-1.1-1.7-1.6-2.6h0c-0.5-0.9-1-1.8-1.4-2.7
	c0.4-0.9,0.9-1.8,1.4-2.7l0,0c0.5-0.9,1.1-1.8,1.6-2.6c1-0.1,2-0.1,3.1-0.1h0c1,0,2.1,0,3.1,0.1c0.6,0.8,1.1,1.7,1.6,2.6
	c0.5,0.9,1,1.8,1.4,2.7C22.8,16.9,22.3,17.8,21.8,18.7L21.8,18.7L21.8,18.7z M24.7,2.7c1.1,0.6,1.6,3.3,0.9,6.7
	c0,0.2-0.1,0.4-0.2,0.7c-1.4-0.3-2.9-0.6-4.5-0.7C20,8,19.1,6.8,18.1,5.8c0.3-0.2,0.5-0.5,0.8-0.7C21.4,2.9,23.7,2.1,24.7,2.7
	L24.7,2.7L24.7,2.7z"/>
<path class="st1" d="M17.1,13c1.7,0,3,1.3,3,3c0,1.7-1.3,3-3,3c-1.7,0-3-1.3-3-3C14.1,14.3,15.4,13,17.1,13"/>
</svg>
