<svg id="d0d8599c-eb2b-4838-8bab-db4ba10bcc16" data-name="Layer 1" xmlns="http://www.w3.org/2000/svg" xmlns:xlink="http://www.w3.org/1999/xlink" width="32px" height="32px" viewBox="0 0 31.96 31.96"><defs><linearGradient id="ba3af62e-db18-4002-a35c-c3ab1ec486a9" x1="-287.74" y1="411.42" x2="-287.74" y2="411.29" gradientTransform="matrix(233.81, 0, 0, -233.81, 67294.01, 96197.11)" gradientUnits="userSpaceOnUse"><stop offset="0" stop-color="#b2e198"/><stop offset="1" stop-color="#04a171"/></linearGradient></defs><title>atom</title><circle cx="15.98" cy="15.98" r="15.98" fill="url(#ba3af62e-db18-4002-a35c-c3ab1ec486a9)"/><path d="M12.24,13.55q-.28.43-.55.87c-.19-.53-.36-1-.5-1.56q.76-.11,1.62-.17-.29.42-.57.85Zm14.1,1a8,8,0,0,0-2.4-1.48,23.47,23.47,0,0,0-7.7-1.59l-1,0c2.23-2.66,4.39-4.08,5.64-4.13a1.12,1.12,0,0,1,.66.16c.59.38.75,1.57.44,3.17a.58.58,0,1,0,1.14.22c.54-2.75-.22-3.9-.94-4.37a2.26,2.26,0,0,0-1.34-.34c-1.93.07-4.64,2.13-7.1,5.3a24.86,24.86,0,0,0-2.8.25c-.1-.45-.17-.88-.22-1.3-.22-1.82.05-3.12.73-3.46a.94.94,0,0,1,.36-.1A3.89,3.89,0,0,1,14.17,8a.58.58,0,1,0,.75-.9,4.8,4.8,0,0,0-3.23-1.41,2.11,2.11,0,0,0-.81.22A2.6,2.6,0,0,0,9.6,7.75a8,8,0,0,0-.08,2.82c.05.44.13.9.23,1.37a14.31,14.31,0,0,0-1.9.53c-2.5.9-3.08,2.1-3.13,2.94s.37,2,2.57,3.13a.58.58,0,1,0,.53-1c-1.26-.65-2-1.39-1.94-2,0-.9,1.56-1.86,4.14-2.4a24.71,24.71,0,0,0,.91,2.67,20.84,20.84,0,0,0-2,5,8,8,0,0,0-.22,2.81,2.6,2.6,0,0,0,1.08,1.95,2.23,2.23,0,0,0,1.24.35,5.72,5.72,0,0,0,3.19-1.3.58.58,0,1,0-.68-.95c-1.36,1-2.52,1.31-3.12.93s-.77-1.73-.36-3.52a18.46,18.46,0,0,1,1.42-3.86q.21.46.45.92a23.5,23.5,0,0,0,4.58,6.39A8,8,0,0,0,18.9,26a3.29,3.29,0,0,0,1.24.27,2.14,2.14,0,0,0,1-.23,2.56,2.56,0,0,0,1.25-1.73,7.53,7.53,0,0,0,.13-2.67,22.47,22.47,0,0,0-2.2-7.09.58.58,0,1,0-1.05.51,21.29,21.29,0,0,1,2.09,6.71c.17,1.7-.11,2.91-.75,3.24s-1.88-.2-3.22-1.45A22.33,22.33,0,0,1,13,17.51c-.29-.57-.56-1.14-.8-1.71.3-.54.63-1.08,1-1.62s.72-1.06,1.08-1.55h.29c.5,0,1,0,1.6,0a22.3,22.3,0,0,1,7.3,1.49c1.69.72,2.67,1.6,2.63,2.36s-.82,1.31-2.15,1.83a.58.58,0,1,0,.42,1.09c2.31-.9,2.85-2,2.89-2.85a2.6,2.6,0,0,0-.94-2Z" transform="translate(0 -0.04)" fill="#f2f8f6"/><path d="M14.8,16.15a1.27,1.27,0,1,0,1.27-1.28,1.28,1.28,0,0,0-1.27,1.28" transform="translate(0 -0.04)" fill="#f1f8f3"/></svg>
