<svg id="49fe1c73-b285-4e53-bf33-7de66319d0fe" data-name="Layer 2" xmlns="http://www.w3.org/2000/svg" width="32" height="32" viewBox="0 0 32 32"><title>gulp</title><path d="M0,0H32V32H0Z" fill="#cf4547"/><path d="M11.07,16.21a1.23,1.23,0,0,0-.08.21l-.14.43-.18.59-.2.66-.2.66-.17.59-.12.44L9.92,20a1.33,1.33,0,0,1-.09.23,1.57,1.57,0,0,1-.14.24.88.88,0,0,1-.18.19.34.34,0,0,1-.2.08A.29.29,0,0,1,9,20.62.82.82,0,0,1,9,20.19v-.09A.9.9,0,0,1,9,20a2.38,2.38,0,0,1,.08-.39q.08-.29.18-.65c.07-.24.15-.49.23-.75l.22-.7q-.29.33-.64.65a6.83,6.83,0,0,1-.7.58,4.1,4.1,0,0,1-.72.42,1.71,1.71,0,0,1-.7.16,1.26,1.26,0,0,1-.67-.17,1.46,1.46,0,0,1-.46-.45,2,2,0,0,1-.27-.62,2.8,2.8,0,0,1-.09-.69V17.3a.55.55,0,0,1,0-.08,7.91,7.91,0,0,1,.18-1.29A10.48,10.48,0,0,1,6,14.62a12.17,12.17,0,0,1,.55-1.28,11.22,11.22,0,0,1,.68-1.18,9.19,9.19,0,0,1,.78-1,6.21,6.21,0,0,1,.85-.8,4.06,4.06,0,0,1,.88-.53,2.23,2.23,0,0,1,.88-.19,1.9,1.9,0,0,1,1,.27,2.79,2.79,0,0,1,.88.89.71.71,0,0,1,.12.28,1.56,1.56,0,0,1,0,.27.71.71,0,0,1-.14.46.4.4,0,0,1-.66,0,3.51,3.51,0,0,1-.34-.53,1.29,1.29,0,0,0-.39-.46.82.82,0,0,0-.46-.14,1.43,1.43,0,0,0-.83.32,4.81,4.81,0,0,0-.87.85A9.27,9.27,0,0,0,8.12,13a12.54,12.54,0,0,0-.7,1.39,9.91,9.91,0,0,0-.48,1.4A5,5,0,0,0,6.76,17a2.88,2.88,0,0,0,0,.38,1.27,1.27,0,0,0,.09.35.7.7,0,0,0,.19.26.45.45,0,0,0,.3.1A1,1,0,0,0,7.83,18a3.45,3.45,0,0,0,.54-.36,6.85,6.85,0,0,0,.56-.5q.28-.28.52-.57c.16-.19.31-.38.43-.55a3.2,3.2,0,0,0,.28-.46L10.68,14a.73.73,0,0,1,.25-.35.55.55,0,0,1,.31-.1l.15,0a.38.38,0,0,1,.14.08.39.39,0,0,1,.1.14.55.55,0,0,1,0,.21,3,3,0,0,1-.06.59,4.71,4.71,0,0,1-.14.54c-.06.17-.12.35-.19.53s-.14.36-.2.55Zm7,1.28a5.23,5.23,0,0,1-.57.64,5.72,5.72,0,0,1-.67.55,4,4,0,0,1-.67.39,1.49,1.49,0,0,1-.6.15A.57.57,0,0,1,15.1,19a.87.87,0,0,1-.17-.6,3.29,3.29,0,0,1,.09-.7,3.58,3.58,0,0,1-.36.52,3.15,3.15,0,0,1-.49.48,2.43,2.43,0,0,1-.62.35,2,2,0,0,1-.75.13,1.32,1.32,0,0,1-.35,0,.74.74,0,0,1-.3-.16.78.78,0,0,1-.2-.3,1.23,1.23,0,0,1-.08-.47l0-.2a4.19,4.19,0,0,1,.14-.61q.12-.42.37-1.08t.7-1.6a.89.89,0,0,1,.27-.36.56.56,0,0,1,.33-.11l.16,0a.54.54,0,0,1,.15.07.39.39,0,0,1,.12.12.34.34,0,0,1,0,.17.44.44,0,0,1,0,.12,1.43,1.43,0,0,1-.12.29l-.21.41-.26.5q-.14.27-.25.56a5.59,5.59,0,0,0-.2.59,2.55,2.55,0,0,0-.09.58.43.43,0,0,0,.06.22.19.19,0,0,0,.18.1,1.15,1.15,0,0,0,.69-.24,3,3,0,0,0,.6-.59,5.56,5.56,0,0,0,.5-.75q.22-.4.37-.74a3.73,3.73,0,0,0,.18-.48,4.75,4.75,0,0,1,.17-.47,1.44,1.44,0,0,1,.22-.36.38.38,0,0,1,.3-.14.38.38,0,0,1,.31.15.57.57,0,0,1,.12.36,1,1,0,0,1-.07.32c-.05.14-.11.29-.19.47l-.25.57q-.13.3-.25.61a6.16,6.16,0,0,0-.19.61,2.3,2.3,0,0,0-.07.55.21.21,0,0,0,.24.24,1.07,1.07,0,0,0,.43-.12,2.9,2.9,0,0,0,.53-.33,5,5,0,0,0,.56-.5,4,4,0,0,0,.49-.62l.05.89Z" fill="#fff"/><path d="M9.3,20.78A.33.33,0,0,1,9,20.64a.85.85,0,0,1-.09-.46v-.09a1,1,0,0,1,0-.1,2.4,2.4,0,0,1,.08-.4c0-.18.11-.39.19-.65l.23-.75.16-.51c-.16.17-.33.34-.51.51a6.91,6.91,0,0,1-.71.59,4.16,4.16,0,0,1-.73.43,1.76,1.76,0,0,1-.72.17,1.31,1.31,0,0,1-.69-.18,1.51,1.51,0,0,1-.47-.46,2.06,2.06,0,0,1-.28-.63,2.86,2.86,0,0,1-.09-.7V17.3a.59.59,0,0,1,0-.08,8,8,0,0,1,.18-1.29A10.57,10.57,0,0,1,6,14.61a12.27,12.27,0,0,1,.55-1.28,11.32,11.32,0,0,1,.68-1.19,9.28,9.28,0,0,1,.79-1,6.29,6.29,0,0,1,.86-.81,4.12,4.12,0,0,1,.89-.53,2.28,2.28,0,0,1,.9-.19,2,2,0,0,1,1,.28,2.84,2.84,0,0,1,.89.9.75.75,0,0,1,.12.29,1.59,1.59,0,0,1,0,.27.75.75,0,0,1-.15.49.44.44,0,0,1-.73,0,3.52,3.52,0,0,1-.34-.54,1.26,1.26,0,0,0-.38-.44.78.78,0,0,0-.44-.13,1.39,1.39,0,0,0-.8.31,4.79,4.79,0,0,0-.86.84A9.26,9.26,0,0,0,8.16,13a12.56,12.56,0,0,0-.7,1.38A9.91,9.91,0,0,0,7,15.81,5,5,0,0,0,6.8,17a2.85,2.85,0,0,0,0,.37,1.24,1.24,0,0,0,.09.34.66.66,0,0,0,.18.24.4.4,0,0,0,.27.09A1,1,0,0,0,7.81,18a3.43,3.43,0,0,0,.53-.36,6.85,6.85,0,0,0,.56-.5c.19-.18.36-.38.52-.57s.31-.38.43-.55a3.19,3.19,0,0,0,.28-.45L10.64,14h0a.77.77,0,0,1,.26-.37.59.59,0,0,1,.34-.11l.17,0a.42.42,0,0,1,.15.09.43.43,0,0,1,.11.16.59.59,0,0,1,0,.22,3,3,0,0,1-.06.6,4.78,4.78,0,0,1-.14.54c-.06.18-.12.36-.19.53s-.14.37-.2.55h0a1.15,1.15,0,0,0-.08.2l-.14.43-.18.58-.2.66-.2.66-.17.59L10,19.8,10,20a1.37,1.37,0,0,1-.09.24,1.6,1.6,0,0,1-.15.25.93.93,0,0,1-.19.2A.38.38,0,0,1,9.3,20.78Zm.49-3.45-.06.19-.22.7L9.28,19l-.18.65A2.37,2.37,0,0,0,9,20H9a.87.87,0,0,0,0,.09v.09a.79.79,0,0,0,.07.41.25.25,0,0,0,.22.1.3.3,0,0,0,.18-.07.84.84,0,0,0,.17-.18,1.51,1.51,0,0,0,.14-.24A1.29,1.29,0,0,0,9.88,20h0l.06-.21.12-.44.17-.59.2-.66.2-.66.18-.59.14-.44a1.22,1.22,0,0,1,.08-.21c.06-.18.13-.36.2-.55s.13-.35.19-.52a4.7,4.7,0,0,0,.14-.53,3,3,0,0,0,.05-.58.51.51,0,0,0,0-.19.35.35,0,0,0-.09-.13h0a.34.34,0,0,0-.12-.07l-.14,0a.51.51,0,0,0-.29.1.69.69,0,0,0-.23.33l-.51,1.54h0a3.21,3.21,0,0,1-.29.47c-.12.17-.27.36-.43.56s-.34.39-.53.57a6.93,6.93,0,0,1-.56.51,3.51,3.51,0,0,1-.54.36,1.06,1.06,0,0,1-.48.14A.49.49,0,0,1,7,18.06a.74.74,0,0,1-.2-.27,1.32,1.32,0,0,1-.1-.36,2.93,2.93,0,0,1,0-.38,5,5,0,0,1,.18-1.25,10,10,0,0,1,.49-1.41A12.64,12.64,0,0,1,8.08,13a9.35,9.35,0,0,1,.83-1.21,4.87,4.87,0,0,1,.88-.85,1.47,1.47,0,0,1,.85-.33.86.86,0,0,1,.48.15,1.34,1.34,0,0,1,.4.47h0a3.44,3.44,0,0,0,.34.53.39.39,0,0,0,.3.17.38.38,0,0,0,.3-.15.67.67,0,0,0,.13-.44,1.51,1.51,0,0,0,0-.26.67.67,0,0,0-.11-.26,2.76,2.76,0,0,0-.86-.88,1.87,1.87,0,0,0-1-.27,2.2,2.2,0,0,0-.86.19,4,4,0,0,0-.87.52,6.2,6.2,0,0,0-.84.8,9.19,9.19,0,0,0-.78,1,11.23,11.23,0,0,0-.68,1.18,12.18,12.18,0,0,0-.55,1.27,10.48,10.48,0,0,0-.38,1.31,7.91,7.91,0,0,0-.18,1.28h0a.51.51,0,0,0,0,.07v.09a2.77,2.77,0,0,0,.09.68,2,2,0,0,0,.27.61,1.43,1.43,0,0,0,.45.43,1.22,1.22,0,0,0,.64.16,1.68,1.68,0,0,0,.68-.16,4.08,4.08,0,0,0,.72-.42,6.82,6.82,0,0,0,.7-.58c.22-.21.44-.43.63-.65Zm5.74,1.94a.61.61,0,0,1-.46-.19.9.9,0,0,1-.18-.63,2.93,2.93,0,0,1,0-.48,3.94,3.94,0,0,1-.24.32,3.2,3.2,0,0,1-.5.48,2.48,2.48,0,0,1-.63.36,2.07,2.07,0,0,1-.76.14,1.37,1.37,0,0,1-.36,0,.78.78,0,0,1-.31-.17.83.83,0,0,1-.22-.31,1.28,1.28,0,0,1-.08-.48l0-.16v0a4.24,4.24,0,0,1,.14-.62c.08-.28.2-.63.37-1.08s.4-1,.7-1.61a.93.93,0,0,1,.28-.37.6.6,0,0,1,.35-.12l.17,0a.58.58,0,0,1,.17.08.43.43,0,0,1,.13.14.38.38,0,0,1,.05.19.49.49,0,0,1,0,.13,1.46,1.46,0,0,1-.12.3l-.21.41-.26.5c-.09.18-.17.36-.25.55a5.57,5.57,0,0,0-.2.58,2.52,2.52,0,0,0-.09.57.39.39,0,0,0,0,.19.15.15,0,0,0,.15.08,1.12,1.12,0,0,0,.66-.23,3,3,0,0,0,.59-.58,5.55,5.55,0,0,0,.5-.75c.15-.27.27-.51.37-.73h0a3.71,3.71,0,0,0,.18-.47,4.81,4.81,0,0,1,.18-.48,1.49,1.49,0,0,1,.22-.37.42.42,0,0,1,.34-.16.42.42,0,0,1,.35.17.62.62,0,0,1,.12.39,1.06,1.06,0,0,1-.08.34c-.05.15-.12.31-.19.47l-.25.57c-.09.2-.17.4-.24.61a6.16,6.16,0,0,0-.19.6,2.27,2.27,0,0,0-.07.54c0,.13.06.19.2.19a1,1,0,0,0,.41-.11,2.88,2.88,0,0,0,.53-.33,5,5,0,0,0,.55-.5,4,4,0,0,0,.49-.62l.07-.11.06,1h0a5.29,5.29,0,0,1-.57.64,5.79,5.79,0,0,1-.67.56,4.06,4.06,0,0,1-.68.39A1.54,1.54,0,0,1,15.54,19.26Zm-.41-1.79-.06.28a3.26,3.26,0,0,0-.09.69.84.84,0,0,0,.15.57.52.52,0,0,0,.4.16,1.46,1.46,0,0,0,.58-.14,4,4,0,0,0,.67-.39,5.7,5.7,0,0,0,.66-.55,5.22,5.22,0,0,0,.55-.62l0-.75a4.08,4.08,0,0,1-.43.52,5,5,0,0,1-.56.5,3,3,0,0,1-.54.34,1.1,1.1,0,0,1-.44.12.25.25,0,0,1-.29-.28,2.35,2.35,0,0,1,.08-.56,6.24,6.24,0,0,1,.19-.61c.08-.21.16-.41.25-.61l.25-.57c.07-.16.13-.32.19-.47a1,1,0,0,0,.07-.31.53.53,0,0,0-.11-.33.33.33,0,0,0-.28-.13.34.34,0,0,0-.27.13,1.4,1.4,0,0,0-.21.35,4.72,4.72,0,0,0-.17.47,3.79,3.79,0,0,1-.19.48c-.1.22-.22.46-.37.74a5.63,5.63,0,0,1-.5.76,3.08,3.08,0,0,1-.61.59,1.2,1.2,0,0,1-.71.24.24.24,0,0,1-.22-.12.48.48,0,0,1-.06-.24h0a2.6,2.6,0,0,1,.1-.59,5.66,5.66,0,0,1,.2-.59c.08-.19.16-.38.25-.56l.26-.5.21-.41a1.4,1.4,0,0,0,.12-.28h0a.4.4,0,0,0,0-.11.29.29,0,0,0,0-.15.35.35,0,0,0-.1-.11l-.14-.07-.15,0a.51.51,0,0,0-.3.1.85.85,0,0,0-.25.34c-.3.63-.54,1.16-.7,1.6s-.29.8-.37,1.07a4.17,4.17,0,0,0-.14.6v0l0,.16a1.19,1.19,0,0,0,.07.45.75.75,0,0,0,.19.28.7.7,0,0,0,.28.15,1.29,1.29,0,0,0,.34,0,2,2,0,0,0,.73-.13,2.4,2.4,0,0,0,.61-.34,3.12,3.12,0,0,0,.49-.47,3.55,3.55,0,0,0,.35-.51Zm-3.2.78h0Z" fill="#fff"/><path d="M18.38,17.35a3.6,3.6,0,0,0-.12.35,1.27,1.27,0,0,0-.06.35.32.32,0,0,0,0,.16.13.13,0,0,0,.13.06.7.7,0,0,0,.29-.08A2.89,2.89,0,0,0,19,18l.41-.3.43-.36.41-.37.35-.34a.24.24,0,0,1,.1-.06l.1,0a.22.22,0,0,1,.18.09.38.38,0,0,1,.07.24.75.75,0,0,1-.08.3,1,1,0,0,1-.27.33q-.35.38-.7.72a7.25,7.25,0,0,1-.71.6,3.76,3.76,0,0,1-.7.42,1.64,1.64,0,0,1-.67.15.87.87,0,0,1-.37-.07.62.62,0,0,1-.24-.19.77.77,0,0,1-.13-.29,1.6,1.6,0,0,1,0-.36,2.81,2.81,0,0,1,.08-.65,4.49,4.49,0,0,1,.19-.61l.39-1,.36-.91,1.65-4.17a.7.7,0,0,1,.26-.36.63.63,0,0,1,.34-.1.49.49,0,0,1,.31.11.43.43,0,0,1,.14.36.73.73,0,0,1,0,.25q0,.13-.12.28l-.32.74-.4,1-.44,1.08-.44,1.09-.4,1-.33.82Z" fill="#fff"/><path d="M18,19.42a.91.91,0,0,1-.39-.08.67.67,0,0,1-.26-.21.82.82,0,0,1-.14-.31,1.65,1.65,0,0,1,0-.36,2.86,2.86,0,0,1,.08-.66,4.55,4.55,0,0,1,.19-.62l.39-1,.36-.91,1.65-4.17a.74.74,0,0,1,.28-.38.67.67,0,0,1,.36-.11.53.53,0,0,1,.33.12.47.47,0,0,1,.16.39.77.77,0,0,1,0,.26c0,.09-.07.18-.12.28l-.32.74-.4,1-.44,1.08-.44,1.09-.4,1-.33.82h0a3.54,3.54,0,0,0-.12.34,1.23,1.23,0,0,0-.06.34.28.28,0,0,0,0,.14s0,0,.09,0a.67.67,0,0,0,.27-.08,2.86,2.86,0,0,0,.37-.21l.41-.3.43-.35.41-.37.35-.34a.28.28,0,0,1,.12-.07l.12,0a.26.26,0,0,1,.21.11.42.42,0,0,1,.08.26.79.79,0,0,1-.08.32,1,1,0,0,1-.28.34c-.23.25-.47.49-.7.72a7.33,7.33,0,0,1-.71.61,3.82,3.82,0,0,1-.71.42A1.69,1.69,0,0,1,18,19.42Zm2.49-8.71a.59.59,0,0,0-.31.1.66.66,0,0,0-.25.34l-1.65,4.17-.36.91-.39,1a4.47,4.47,0,0,0-.19.61,2.78,2.78,0,0,0-.08.64,1.57,1.57,0,0,0,0,.35.74.74,0,0,0,.12.28.58.58,0,0,0,.22.18.83.83,0,0,0,.36.07,1.61,1.61,0,0,0,.66-.15,3.74,3.74,0,0,0,.69-.41,7.25,7.25,0,0,0,.7-.6c.24-.23.47-.47.7-.72h0a.93.93,0,0,0,.26-.31.71.71,0,0,0,.07-.29.34.34,0,0,0-.06-.21.18.18,0,0,0-.15-.07l-.09,0a.2.2,0,0,0-.09.05L20.3,17l-.41.37-.43.36L19,18a2.94,2.94,0,0,1-.38.22.75.75,0,0,1-.3.09.17.17,0,0,1-.16-.08.36.36,0,0,1,0-.18,1.31,1.31,0,0,1,.06-.36,3.62,3.62,0,0,1,.12-.35l.33-.82.4-1,.44-1.09L20,13.34l.4-1,.32-.74h0c0-.1.08-.19.12-.27a.69.69,0,0,0,0-.23.39.39,0,0,0-.12-.32A.44.44,0,0,0,20.44,10.71Z" fill="#fff"/><path d="M26.11,16.18l.14-.08a.28.28,0,0,1,.13,0,.2.2,0,0,1,.18.11.52.52,0,0,1,.06.26.87.87,0,0,1-.07.34.72.72,0,0,1-.22.29l-1,.94a11.26,11.26,0,0,1-.86.73,3.91,3.91,0,0,1-.79.47,2.06,2.06,0,0,1-.83.17,1,1,0,0,1-.64-.18.6.6,0,0,1-.23-.5v0a.34.34,0,0,1,0-.06,1.17,1.17,0,0,1,.17-.45,5.29,5.29,0,0,1,.35-.52l.44-.55.43-.53a5.19,5.19,0,0,0,.33-.46.69.69,0,0,0,.13-.34.15.15,0,0,0-.05-.12.28.28,0,0,0-.18,0,1,1,0,0,0-.45.11,2.23,2.23,0,0,0-.46.3,4.07,4.07,0,0,0-.44.44,6.38,6.38,0,0,0-.4.51c-.13.18-.24.35-.34.53s-.19.34-.26.49l-.09.2-.13.29-.15.33-.14.32-.12.27-.07.16-.09.22-.14.38-.17.46-.17.45-.14.37-.08.22a2.42,2.42,0,0,1-.13.32,1.29,1.29,0,0,1-.17.26.77.77,0,0,1-.22.18.56.56,0,0,1-.28.07.54.54,0,0,1-.32-.09.42.42,0,0,1-.13-.36,1.14,1.14,0,0,1,0-.26,2.43,2.43,0,0,1,.08-.27l.1-.26.1-.24.6-1.3q.31-.65.59-1.29t.52-1.25q.24-.61.4-1.18l.12-.33a4.49,4.49,0,0,1,.17-.42,1.78,1.78,0,0,1,.22-.36.34.34,0,0,1,.26-.15.43.43,0,0,1,.32.1.4.4,0,0,1,.1.29,1,1,0,0,1,0,.12l0,.18,0,.18a.9.9,0,0,1,0,.12c.13-.15.28-.29.44-.44a4.53,4.53,0,0,1,.49-.39,2.81,2.81,0,0,1,.51-.28,1.35,1.35,0,0,1,.52-.11,1.26,1.26,0,0,1,.36.05,1,1,0,0,1,.32.15.8.8,0,0,1,.23.25.69.69,0,0,1,.09.35,1.4,1.4,0,0,1-.13.57,4.13,4.13,0,0,1-.34.6q-.2.3-.44.59l-.44.52-.34.4a.61.61,0,0,0-.14.22.17.17,0,0,0,0,.13.23.23,0,0,0,.16,0,.63.63,0,0,0,.27-.1,4.57,4.57,0,0,0,.5-.36l.82-.69,1.23-1.08Z" fill="#fff"/><path d="M18.91,22.54a.58.58,0,0,1-.35-.1.46.46,0,0,1-.15-.39,1.18,1.18,0,0,1,0-.27,2.48,2.48,0,0,1,.08-.27l.1-.26.09-.24h0l.6-1.3c.21-.44.41-.88.59-1.29s.36-.83.52-1.25.29-.8.4-1.17h0l.12-.33a4.56,4.56,0,0,1,.18-.42,1.83,1.83,0,0,1,.23-.37.38.38,0,0,1,.3-.17.47.47,0,0,1,.35.11.44.44,0,0,1,.11.32,1.06,1.06,0,0,1,0,.13l0,.18,0,.14.32-.32a4.6,4.6,0,0,1,.49-.39,2.86,2.86,0,0,1,.52-.29,1.39,1.39,0,0,1,.54-.11,1.31,1.31,0,0,1,.37.05,1.08,1.08,0,0,1,.33.16.84.84,0,0,1,.24.26.74.74,0,0,1,.09.37,1.44,1.44,0,0,1-.14.58,4.19,4.19,0,0,1-.34.61c-.14.2-.28.4-.44.59l-.44.52-.34.4c-.12.14-.13.19-.13.2a.13.13,0,0,0,0,.09.19.19,0,0,0,.13,0,.58.58,0,0,0,.25-.1,4.55,4.55,0,0,0,.5-.35l.82-.68,1.23-1.08h0l.15-.09a.32.32,0,0,1,.14,0,.24.24,0,0,1,.22.13.57.57,0,0,1,.07.28.91.91,0,0,1-.08.36.77.77,0,0,1-.23.31l-1,.94a11.36,11.36,0,0,1-.87.74,4,4,0,0,1-.8.48,2.11,2.11,0,0,1-.85.17,1.05,1.05,0,0,1-.67-.19.64.64,0,0,1-.24-.53v0a.37.37,0,0,1,0-.06,1.22,1.22,0,0,1,.17-.46,5.36,5.36,0,0,1,.36-.53l.44-.55.43-.53a5.18,5.18,0,0,0,.33-.45.66.66,0,0,0,.12-.31.11.11,0,0,0,0-.09.25.25,0,0,0-.15,0,1,1,0,0,0-.43.11,2.2,2.2,0,0,0-.45.3,4,4,0,0,0-.44.43,6.38,6.38,0,0,0-.4.51c-.13.18-.24.36-.34.53s-.19.35-.26.49l-.09.2L21,18.5l-.15.33-.14.32,0,.1-.08.18-.07.17-.09.22-.13.34,0,.12-.14.37L20,21.1l-.14.37-.08.22h0a2.48,2.48,0,0,1-.13.32,1.33,1.33,0,0,1-.17.27.81.81,0,0,1-.23.19A.6.6,0,0,1,18.91,22.54ZM18.8,21l-.1.24-.1.26a2.39,2.39,0,0,0-.08.26,1.1,1.1,0,0,0,0,.26.39.39,0,0,0,.11.32.5.5,0,0,0,.3.09.52.52,0,0,0,.26-.06.72.72,0,0,0,.21-.17,1.25,1.25,0,0,0,.16-.25,2.39,2.39,0,0,0,.13-.31l.08-.22.14-.37.17-.45.14-.37,0-.13.13-.34.09-.22.07-.16.08-.18,0-.1.14-.32.15-.33.13-.29.09-.2h0c.07-.15.16-.31.27-.5s.22-.36.35-.54a6.46,6.46,0,0,1,.41-.51,4.13,4.13,0,0,1,.45-.44,2.28,2.28,0,0,1,.47-.31,1.07,1.07,0,0,1,.47-.12.32.32,0,0,1,.21.05.19.19,0,0,1,.07.15.72.72,0,0,1-.14.36,5.19,5.19,0,0,1-.33.46l-.43.53-.44.55a5.28,5.28,0,0,0-.35.52,1.14,1.14,0,0,0-.16.43h0a.3.3,0,0,0,0,0v0a.56.56,0,0,0,.21.47,1,1,0,0,0,.62.17,2,2,0,0,0,.81-.16,3.89,3.89,0,0,0,.79-.47,11.27,11.27,0,0,0,.86-.73l1-.94h0a.68.68,0,0,0,.21-.27.83.83,0,0,0,.07-.33.49.49,0,0,0-.05-.24.16.16,0,0,0-.14-.09l-.11,0-.13.08L24.91,17.3l-.83.69a4.63,4.63,0,0,1-.51.36.66.66,0,0,1-.29.11.26.26,0,0,1-.19-.06.21.21,0,0,1-.06-.16h0s0-.09.15-.25l.34-.4.44-.52c.15-.19.3-.39.43-.59a4.11,4.11,0,0,0,.33-.6,1.36,1.36,0,0,0,.13-.55.65.65,0,0,0-.08-.33.76.76,0,0,0-.21-.24,1,1,0,0,0-.3-.15,1.23,1.23,0,0,0-.35-.05,1.31,1.31,0,0,0-.51.11,2.78,2.78,0,0,0-.5.28,4.51,4.51,0,0,0-.48.39c-.16.15-.3.29-.43.43l-.16.17.09-.21,0-.12,0-.18,0-.18a1,1,0,0,0,0-.12.37.37,0,0,0-.09-.26.39.39,0,0,0-.29-.09.31.31,0,0,0-.23.14,1.75,1.75,0,0,0-.22.35,4.47,4.47,0,0,0-.17.42l-.12.33c-.1.37-.24.77-.4,1.18s-.34.84-.52,1.25-.38.84-.59,1.29Z" fill="#fff"/></svg>
