<svg id="a9d92fbd-efc4-4db1-a58c-765f6690335a" data-name="Layer 5" xmlns="http://www.w3.org/2000/svg" width="75.54" height="32" viewBox="0 0 75.54 32"><title>jquery</title><path d="M21.58,13.54h0L21,15.68l.6-2.14Z" fill="#131b28"/><path d="M24.69,18.19h0Z" fill="#131b28"/><path d="M24.52,21.38h0Z" fill="#131b28"/><path d="M25.35,18.19h0Z" fill="#131b28"/><path d="M24.87,21.11l.69-2.65-.69,2.65h0Z" fill="#131b28"/><path d="M39.53,8.92,38.24,15Z" fill="#131b28"/><path d="M36.21,8.92l-1,4.54,1-4.54Z" fill="#131b28"/><path d="M39.31,8.65H36.55a.36.36,0,0,0-.34.27l-1,4.54-1,4.54a.36.36,0,0,1-.34.27H32c-1.94,0-1.71-1.34-1.32-3.17V15l0-.23v0l.09-.47.09-.5.1-.51.45-2.18.45-2.18a.22.22,0,0,0-.22-.27H28.82a.36.36,0,0,0-.34.27l-.61,2.89-.61,2.89h0L27.2,15c-.7,3.21-.52,6.27,3.3,6.36h6.11a.36.36,0,0,0,.34-.27L38.24,15l1.29-6.08a.22.22,0,0,0-.22-.27Z" fill="#131b28"/><path d="M50.34,18.31a.22.22,0,0,1,.22.27l-.27,1.31" fill="#131b28"/><path d="M50,21.2l.27-1.31L50,21.2h0Z" fill="#131b28"/><path d="M49.69,21.48h0l-5.1,0c2.24,0,5.09,0,5.09,0Z" fill="#131b28"/><path d="M42.95,16.62c0-.14.16-.39.31-.39h-.35c-.16,1.56,0,.4,0,.4Z" fill="#131b28"/><path d="M44.85,21.5h0Z" fill="#131b28"/><path d="M50.34,18.31a.22.22,0,0,1,.22.27l-.27,1.31,0,.21" fill="#131b28"/><path d="M45.27,21.5h0Z" fill="#131b28"/><path d="M45.44,21.5h0Z" fill="#131b28"/><path d="M46.15,21.5h0Z" fill="#131b28"/><path d="M49.69,21.48h0l-3.54,0Z" fill="#131b28"/><path d="M50,21.2l.22-1.1L50,21.21h0Z" fill="#131b28"/><path d="M4.56,16.65,5,14.74,4.5,16.92,4,19.14l.41-1.94.12-.55Z" fill="#131b28"/><path d="M9.7,8.61h-3a.37.37,0,0,0-.34.27L6,10.16l-.29,1.27A.21.21,0,0,0,6,11.7H9a.36.36,0,0,0,.34-.27l.28-1.27.28-1.27h0a.22.22,0,0,0-.22-.27Z" fill="#131b28"/><path d="M9,12.84H9L8.15,17Z" fill="#131b28"/><path d="M.22,26.49l2.5,0-2.5,0h0Z" fill="#131b28"/><path d="M5.42,12.84,5,14.74Z" fill="#131b28"/><path d="M8.82,12.57H5.76a.37.37,0,0,0-.34.27L5,14.74l-.43,1.9-.12.55L4,19.14l-.41,1.94c0,.15-.1.39-.15.54s-.57,1.7-1.53,1.68H1.82l-.83,0H1a.36.36,0,0,0-.34.27L.32,24.88,0,26.22a.21.21,0,0,0,.21.27l2.5,0c2.4,0,3.67-1.33,4.48-5.16L8.15,17,9,12.84a.22.22,0,0,0-.22-.27Z" fill="#131b28"/><path d="M52.29,21.35a.22.22,0,0,1-.22-.27l2.3-10.78" fill="#131b28"/><path d="M55.49,21.07l.93-4.6Z" fill="#131b28"/><path d="M52.1,21.21a1.19,1.19,0,0,1,0-.41l1.09-5.12-1.15,5.39a.22.22,0,0,0,.22.27h.28c-.15,0-.45-.06-.47-.14Z" fill="#131b28"/><path d="M55.31,21.29a1.45,1.45,0,0,1-.43.06h.28a.36.36,0,0,0,.33-.27l.06-.27c0,.15-.15.45-.24.49Z" fill="#131b28"/><path d="M56,18.77l.41-2h0l-.41,2Z" fill="#131b28"/><path d="M65,11l.13.52a.21.21,0,0,1-.22.27" fill="#131b28"/><path d="M55.55,20.8l.41-2Z" fill="#131b28"/><path d="M64.91,10.48,65,11Z" fill="#131b28"/><path d="M56.37,16.74l.11-.54.44-2.06-.5,2.33-.05.27Z" fill="#131b28"/><path d="M54.41,10.12l-.1.45-1.09,5.12,1.15-5.39,0-.18Z" fill="#131b28"/><path d="M65.17,11.54,65,11l-.13-.54-.06-.27c-.25-1-1-1.52-2.56-1.52H55a.36.36,0,0,0-.34.27h0l-.11.53-.13.63,0,.18-1.15,5.39L52.13,20.8a1.19,1.19,0,0,0,0,.41c0,.08.31.14.47.14h2.31a1.45,1.45,0,0,0,.43-.06c.08,0,.21-.34.24-.49l.41-2,.41-2h0l.05-.27.5-2.33.44-2.06a.36.36,0,0,1,.34-.27H65a.21.21,0,0,0,.22-.27Z" fill="#131b28"/><path d="M74.51,6.8H71.62a.59.59,0,0,0-.44.23l-5.14,7.52c-.09.13-.19.11-.22,0l-.38-1.66a.37.37,0,0,0-.34-.27h-3.3a.2.2,0,0,0-.2.27L63.09,18a1.22,1.22,0,0,1,0,.54l-.64,2.51a.21.21,0,0,0,.21.27h3.26a.38.38,0,0,0,.35-.27l.65-2.51a1.67,1.67,0,0,1,.24-.49L75.49,7c.09-.12,0-.22-.11-.22h-.88Z" fill="#131b28"/><path d="M48.28,13.29h0a.34.34,0,0,1-.33.29H43.77a.18.18,0,0,1-.2-.22h0l0-.07a2.62,2.62,0,0,1,2.74-1.76c1.72,0,2.06.84,1.94,1.79ZM47.05,8.46c-5.37,0-6.65,3.26-7.36,6.55S39,21.5,44.6,21.5h1.56l3.54,0a.36.36,0,0,0,.33-.27l.23-1.1,0-.21.27-1.31a.22.22,0,0,0-.22-.27h-5c-2,0-2.58-.53-2.36-2.08h8a.33.33,0,0,0,.29-.21.29.29,0,0,0,0-.07h0c1.19-4.47.85-7.49-4.24-7.49Z" fill="#131b28"/><path d="M21.66,13.27l-.08.27h0L21,15.68l-.6,2.14a.39.39,0,0,1-.36.27H16.83c-2.42,0-3-1.89-2.42-4.69s1.75-4.63,4.13-4.81c3.26-.25,3.91,2,3.12,4.69Zm2.19,4.65a35.81,35.81,0,0,0,1.85-5.77c.47-2.83-.95-6.93-6.41-6.93s-7.79,3.91-8.7,8.17.28,8,5.68,8l4.26,0h4a.39.39,0,0,0,.35-.27l.69-2.65a.21.21,0,0,0-.21-.27H24a.17.17,0,0,1-.19-.2.26.26,0,0,1,0-.06Z" fill="#131b28"/><path d="M50.75,15.48a.18.18,0,1,1-.18-.18A.18.18,0,0,1,50.75,15.48Z" fill="#131b28"/></svg>