<svg id="4fd346ac-c1f6-4003-b1df-3c6a4a892689" data-name="Layer 9" xmlns="http://www.w3.org/2000/svg" width="33.89" height="32" viewBox="0 0 33.89 32"><title>sass</title><path d="M29.17,17.89a7,7,0,0,0-3.07.71A6.32,6.32,0,0,1,25.41,17a4.39,4.39,0,0,1-.06-1.34,10.71,10.71,0,0,1,.4-1.44c0-.06-.07-.35-.75-.36s-1.27.13-1.34.31a7.6,7.6,0,0,0-.28,1,24.09,24.09,0,0,1-2.07,4A4.07,4.07,0,0,1,20.84,18a4.39,4.39,0,0,1-.06-1.34,10.72,10.72,0,0,1,.4-1.44c0-.06-.07-.35-.75-.36s-1.27.13-1.34.31-.14.6-.28,1S17,20.29,16.58,21.25c-.22.49-.41.88-.55,1.15s0,0,0,0l-.19.35h0c-.09.17-.19.32-.24.32a2.21,2.21,0,0,1,0-1.05c.24-1.28.84-3.27.83-3.34s.11-.38-.38-.56a.6.6,0,0,0-.69.12s-.07.11-.07.11.54-2.24-1-2.24a4.64,4.64,0,0,0-3,2L9,19.43l-1.1.6L7.81,20c-1.89-2-5.39-3.45-5.25-6.16.05-1,.4-3.59,6.72-6.74,5.18-2.58,9.33-1.87,10.05-.3,1,2.25-2.22,6.43-7.61,7a4,4,0,0,1-3.4-.86c-.28-.31-.32-.32-.43-.26s-.07.37,0,.54a3.2,3.2,0,0,0,1.95,1.53,10.31,10.31,0,0,0,6.31-.62c3.26-1.26,5.81-4.77,5.06-7.7s-5.71-4-10.39-2.3a23.56,23.56,0,0,0-8,4.57C.27,11.09-.14,13.19,0,14.07c.6,3.12,4.9,5.15,6.62,6.65l-.24.13c-.86.42-4.14,2.14-5,4-.93,2.05.15,3.53.86,3.73A5.29,5.29,0,0,0,8,26.22,5.72,5.72,0,0,0,8.53,21l0,0,.68-.4c.44-.26.87-.5,1.24-.7A8.24,8.24,0,0,0,10,22.07a4.69,4.69,0,0,0,1,3.27,1.12,1.12,0,0,0,.81.26c.73,0,1.06-.6,1.42-1.32.45-.88.85-1.9.85-1.9s-.5,2.76.86,2.76c.5,0,1-.64,1.22-1h0l0-.07.08-.13h0c.2-.34.64-1.13,1.3-2.44.85-1.68,1.67-3.79,1.67-3.79a12.08,12.08,0,0,0,.32,1.36,13,13,0,0,0,.71,1.59l-.32.44h0c-.16.21-.34.44-.52.66a19.24,19.24,0,0,0-1.59,2,.55.55,0,0,0,.15.73,1.32,1.32,0,0,0,.83.13,3.72,3.72,0,0,0,1.24-.28,4.31,4.31,0,0,0,1.07-.56,2.39,2.39,0,0,0,1-2.11,4.25,4.25,0,0,0-.39-1.49l.18-.26a27.94,27.94,0,0,0,1.85-3.21,12.08,12.08,0,0,0,.32,1.36,9.56,9.56,0,0,0,.6,1.36,5.88,5.88,0,0,0-1.81,2.34c-.39,1.13-.09,1.63.49,1.75a1.76,1.76,0,0,0,.91-.19,4.11,4.11,0,0,0,1.15-.59,2.59,2.59,0,0,0,1.26-2.09,4,4,0,0,0-.28-1.24,6.45,6.45,0,0,1,3.28-.38c2.95.34,3.53,2.18,3.42,3a2,2,0,0,1-.93,1.32c-.21.13-.27.17-.25.26s.12.13.3.11a2.29,2.29,0,0,0,1.6-2c.08-1.82-1.65-3.81-4.71-3.79ZM6.45,25.54c-1,1.07-2.34,1.47-2.93,1.13s-.38-1.93.81-3.06a15.57,15.57,0,0,1,2.3-1.71l.6-.36.07,0,.15-.09a4.22,4.22,0,0,1-1,4.15Zm7.12-4.84c-.34.83-1.05,3-1.48,2.83s-.6-1.71-.07-3.3a7.36,7.36,0,0,1,1.16-2.12c.54-.6,1.12-.79,1.26-.55S13.78,20.19,13.57,20.71Zm5.87,2.81c-.15.07-.28.13-.34.09s.06-.13.06-.13.73-.79,1-1.15l.58-.73v.08a2.44,2.44,0,0,1-1.32,1.85Zm4.53-1c-.11-.08-.09-.32.26-1.09a4.09,4.09,0,0,1,1-1.3,1.64,1.64,0,0,1,.1.57A1.86,1.86,0,0,1,24,22.48Z" fill="#cf649a"/></svg>